<svg width="207" height="210" viewBox="0 0 207 210" fill="none" xmlns="http://www.w3.org/2000/svg">
<circle cx="103.5" cy="103.5" r="103" stroke="#622771"/>
<g clip-path="url(#clip0_420_116)">
<path d="M22.5 181C34.9264 181 45 170.926 45 158.5C45 146.074 34.9264 136 22.5 136C10.0736 136 0 146.074 0 158.5C0 170.926 10.0736 181 22.5 181Z" fill="#CBDD0A"/>
<path d="M22.5 156.812L5.77125 173.541C9.88875 178.12 15.8569 181 22.5 181C29.1431 181 35.1112 178.12 39.2287 173.541L22.5 156.812Z" fill="#563B7D"/>
<path d="M23.9062 168.062C27.1682 168.062 29.8125 165.418 29.8125 162.156C29.8125 158.894 27.1682 156.25 23.9062 156.25C20.6443 156.25 18 158.894 18 162.156C18 165.418 20.6443 168.062 23.9062 168.062Z" fill="#34244D"/>
<path d="M16.0312 152.875C19.2932 152.875 21.9375 150.231 21.9375 146.969C21.9375 143.707 19.2932 141.062 16.0312 141.062C12.7693 141.062 10.125 143.707 10.125 146.969C10.125 150.231 12.7693 152.875 16.0312 152.875Z" fill="#563B7D"/>
<path d="M22.5 166.375C28.0919 166.375 32.625 161.842 32.625 156.25C32.625 150.658 28.0919 146.125 22.5 146.125C16.9081 146.125 12.375 150.658 12.375 156.25C12.375 161.842 16.9081 166.375 22.5 166.375Z" fill="#563B7D"/>
<path d="M20.25 160.75C22.7353 160.75 24.75 158.735 24.75 156.25C24.75 153.765 22.7353 151.75 20.25 151.75C17.7647 151.75 15.75 153.765 15.75 156.25C15.75 158.735 17.7647 160.75 20.25 160.75Z" fill="white"/>
<path d="M20.25 158.5C21.4926 158.5 22.5 157.493 22.5 156.25C22.5 155.007 21.4926 154 20.25 154C19.0074 154 18 155.007 18 156.25C18 157.493 19.0074 158.5 20.25 158.5Z" fill="#333334"/>
<path d="M30.375 160.75C32.8603 160.75 34.875 158.735 34.875 156.25C34.875 153.765 32.8603 151.75 30.375 151.75C27.8897 151.75 25.875 153.765 25.875 156.25C25.875 158.735 27.8897 160.75 30.375 160.75Z" fill="white"/>
<path d="M30.375 158.5C31.6176 158.5 32.625 157.493 32.625 156.25C32.625 155.007 31.6176 154 30.375 154C29.1324 154 28.125 155.007 28.125 156.25C28.125 157.493 29.1324 158.5 30.375 158.5Z" fill="#333334"/>
<path d="M21.375 162.438H27.2812" stroke="white" stroke-width="2" stroke-miterlimit="10"/>
<path d="M5.90625 173.688C10.0181 178.176 15.93 181 22.5 181C25.6669 181 28.6763 180.342 31.4044 179.161C31.3313 178.435 31.0275 177.715 30.4312 177.124L27.9844 174.678C27.3544 174.042 26.4937 173.688 25.5994 173.688H5.90625Z" fill="#7953B0"/>
<path d="M18.3544 148.111C18.3544 148.111 26.5613 152.453 29.4581 144.73C29.4581 144.73 23.6644 140.871 18.3544 148.111Z" fill="#DE57A9"/>
</g>
<g clip-path="url(#clip1_420_116)">
<path d="M42 40C53.0457 40 62 31.0457 62 20C62 8.9543 53.0457 0 42 0C30.9543 0 22 8.9543 22 20C22 31.0457 30.9543 40 42 40Z" fill="#98CC25"/>
<path d="M42 18.5L27.13 33.37C30.79 37.44 36.095 40 42 40C47.905 40 53.21 37.44 56.87 33.37L42 18.5Z" fill="#C464BC"/>
<path d="M42 4.5C35.675 4.5 30.5 9.675 30.5 16V23C30.5 24.33 30.73 25.605 31.15 26.8C34.275 28.825 38 30 42 30C46 30 49.725 28.82 52.85 26.8C53.27 25.61 53.5 24.33 53.5 23V16C53.5 9.675 48.325 4.5 42 4.5Z" fill="#F2DCE2"/>
<path d="M32.77 27.73C35.53 29.175 38.665 30 42 30C45.335 30 48.465 29.17 51.23 27.73L42 18.5L32.77 27.73Z" fill="#D3BCCE"/>
<path d="M48 20C48 16.6863 45.3137 14 42 14C38.6863 14 36 16.6863 36 20V22.5C36 25.8137 38.6863 28.5 42 28.5C45.3137 28.5 48 25.8137 48 22.5V20Z" fill="#D3BCCE"/>
<path d="M46.5 16.5H43.5C41.8431 16.5 40.5 17.8431 40.5 19.5C40.5 21.1569 41.8431 22.5 43.5 22.5H46.5C48.1569 22.5 49.5 21.1569 49.5 19.5C49.5 17.8431 48.1569 16.5 46.5 16.5Z" fill="white"/>
<path d="M45 21.5C46.1046 21.5 47 20.6046 47 19.5C47 18.3954 46.1046 17.5 45 17.5C43.8954 17.5 43 18.3954 43 19.5C43 20.6046 43.8954 21.5 45 21.5Z" fill="#213E73"/>
<path d="M42.555 7.43495C42.595 6.88495 42.36 6.79995 42.035 7.24495L40.595 9.19495C40.27 9.63995 40.425 10.0399 40.94 10.0949C41.455 10.1499 41.785 10.6299 41.67 11.1649L41.525 11.8349C41.41 12.3749 41.625 12.4849 42 12.0849L43.815 10.1649C44.195 9.76495 44.06 9.35495 43.52 9.25995L43.425 9.24495C42.885 9.14495 42.475 8.61495 42.51 8.06995L42.555 7.43995V7.43495Z" fill="#34244D"/>
<path d="M39.97 33.15C39.97 33.15 40.68 35.455 42.63 34.57C42.63 34.57 42.275 32.795 39.97 33.15Z" fill="#AB58A4"/>
<path d="M43.47 32.15C43.47 32.15 44.18 34.455 46.13 33.57C46.13 33.57 45.775 31.795 43.47 32.15Z" fill="#AB58A4"/>
<path d="M43.97 34.65C43.97 34.65 44.68 36.955 46.63 36.07C46.63 36.07 46.275 34.295 43.97 34.65Z" fill="#AB58A4"/>
<path d="M40.97 36.15C40.97 36.15 41.68 38.455 43.63 37.57C43.63 37.57 43.275 35.795 40.97 36.15Z" fill="#AB58A4"/>
</g>
<g clip-path="url(#clip2_420_116)">
<path d="M187 68C198.046 68 207 59.0457 207 48C207 36.9543 198.046 28 187 28C175.954 28 167 36.9543 167 48C167 59.0457 175.954 68 187 68Z" fill="#00C3EF"/>
<path d="M195 41.5H180C176.686 41.5 174 44.1863 174 47.5V48.5C174 51.8137 176.686 54.5 180 54.5H195C198.314 54.5 201 51.8137 201 48.5V47.5C201 44.1863 198.314 41.5 195 41.5Z" fill="#F2ECEE"/>
<path d="M184.75 49C189.306 49 193 45.3063 193 40.75C193 36.1937 189.306 32.5 184.75 32.5C180.194 32.5 176.5 36.1937 176.5 40.75C176.5 45.3063 180.194 49 184.75 49Z" fill="#F2ECEE"/>
<path d="M192.75 45.5C195.649 45.5 198 43.1495 198 40.25C198 37.3505 195.649 35 192.75 35C189.851 35 187.5 37.3505 187.5 40.25C187.5 43.1495 189.851 45.5 192.75 45.5Z" fill="#F2ECEE"/>
<path d="M195 54.5C195.825 54.5 196.61 54.33 197.325 54.03C196.305 51.105 193.525 49 190.25 49C186.8 49 183.905 51.33 183.03 54.5H195Z" fill="#F2DCE2"/>
<path d="M182.5 51.5C183.052 51.5 183.5 51.0523 183.5 50.5C183.5 49.9477 183.052 49.5 182.5 49.5C181.948 49.5 181.5 49.9477 181.5 50.5C181.5 51.0523 181.948 51.5 182.5 51.5Z" fill="#213E73"/>
<path d="M197.5 51C198.052 51 198.5 50.5523 198.5 50C198.5 49.4477 198.052 49 197.5 49C196.948 49 196.5 49.4477 196.5 50C196.5 50.5523 196.948 51 197.5 51Z" fill="#213E73"/>
<path d="M191.595 48.5H189.5C188.672 48.5 188 49.1716 188 50C188 50.8284 188.672 51.5 189.5 51.5H191.595C192.423 51.5 193.095 50.8284 193.095 50C193.095 49.1716 192.423 48.5 191.595 48.5Z" fill="#213E73"/>
<path d="M186.21 61.6649L187.52 60.3199C187.575 60.2649 187.66 60.2649 187.71 60.3249L188.935 61.7549C189.66 62.5999 189.625 63.9399 188.85 64.7349C188.075 65.5299 186.85 65.4899 186.125 64.6449C185.4 63.7999 185.435 62.4599 186.21 61.6649Z" fill="#5E88E6"/>
<path d="M190.71 57.1649L192.02 55.8199C192.075 55.7649 192.16 55.7649 192.21 55.8249L193.435 57.2549C194.16 58.0999 194.125 59.4399 193.35 60.2349C192.575 61.0299 191.35 60.9899 190.625 60.1449C189.9 59.2999 189.935 57.9599 190.71 57.1649Z" fill="#5E88E6"/>
<path d="M182.21 57.1649L183.52 55.8199C183.575 55.7649 183.66 55.7649 183.71 55.8249L184.935 57.2549C185.66 58.0999 185.625 59.4399 184.85 60.2349C184.075 61.0299 182.85 60.9899 182.125 60.1449C181.4 59.2999 181.435 57.9599 182.21 57.1649Z" fill="#5E88E6"/>
</g>
<g clip-path="url(#clip3_420_116)">
<path d="M187 185C198.046 185 207 176.046 207 165C207 153.954 198.046 145 187 145C175.954 145 167 153.954 167 165C167 176.046 175.954 185 187 185Z" fill="#FEDE4A"/>
<path d="M185 174.5C191.627 174.5 197 169.463 197 163.25C197 157.037 191.627 152 185 152C178.373 152 173 157.037 173 163.25C173 169.463 178.373 174.5 185 174.5Z" fill="#F77B4D"/>
<path d="M187 154.5C180.675 154.5 175.5 159.675 175.5 166V178C175.5 179.33 175.73 180.605 176.15 181.8C179.275 183.825 183 185 187 185C191 185 194.725 183.82 197.85 181.8C198.27 180.61 198.5 179.33 198.5 178V166C198.5 159.675 193.325 154.5 187 154.5Z" fill="white"/>
<path d="M179 157.325C179 157.325 190.5 166.325 199.5 154.01L194 153.535L196.5 149.745C196.5 149.745 181.5 147.375 179 157.325Z" fill="#F77B4D"/>
<path opacity="0.3" d="M189 177.865C191.899 177.865 194.25 175.291 194.25 172.115C194.25 168.939 191.899 166.365 189 166.365C186.101 166.365 183.75 168.939 183.75 172.115C183.75 175.291 186.101 177.865 189 177.865Z" fill="#F49038"/>
<path d="M180.75 171.5C181.716 171.5 182.5 170.716 182.5 169.75C182.5 168.784 181.716 168 180.75 168C179.784 168 179 168.784 179 169.75C179 170.716 179.784 171.5 180.75 171.5Z" fill="#414042"/>
<path d="M194.935 183.36C197.785 182.125 200.29 180.25 202.265 177.915C200.2 174.58 198.245 171.5 198.245 171.5L194.93 183.36H194.935Z" fill="#FEDE4A"/>
<path d="M198.25 171.5C199.216 171.5 200 170.716 200 169.75C200 168.784 199.216 168 198.25 168C197.284 168 196.5 168.784 196.5 169.75C196.5 170.716 197.284 171.5 198.25 171.5Z" fill="#414042"/>
<path d="M187.5 168.99V169.615C187.5 170.44 188.175 171.115 189 171.115C189.825 171.115 190.5 170.44 190.5 169.615V168.99" stroke="#333334" stroke-width="2" stroke-miterlimit="10"/>
<path d="M175.5 176V178C175.5 179.33 175.73 180.605 176.15 181.8C179.275 183.825 183 185 187 185C191 185 194.725 183.82 197.85 181.8C198.27 180.61 198.5 179.33 198.5 178V176H175.5Z" fill="#563B7D"/>
<path d="M186.5 176.225C186.5 174.85 187.465 174.305 188.645 175.01L189.81 175.71C190.99 176.415 190.99 177.575 189.81 178.28L188.645 178.98C187.465 179.685 186.5 179.14 186.5 177.765V176.22V176.225Z" fill="#22AF97"/>
<path d="M194.5 177.775C194.5 179.15 193.535 179.695 192.355 178.99L191.19 178.29C190.01 177.585 190.01 176.425 191.19 175.72L192.355 175.02C193.535 174.315 194.5 174.86 194.5 176.235V177.78V177.775Z" fill="#22AF97"/>
<path d="M182.75 167.5H178.25C177.836 167.5 177.5 167.836 177.5 168.25C177.5 168.664 177.836 169 178.25 169H182.75C183.164 169 183.5 168.664 183.5 168.25C183.5 167.836 183.164 167.5 182.75 167.5Z" fill="#F77B4D"/>
<path d="M200.25 167.5H195.75C195.336 167.5 195 167.836 195 168.25C195 168.664 195.336 169 195.75 169H200.25C200.664 169 201 168.664 201 168.25C201 167.836 200.664 167.5 200.25 167.5Z" fill="#F77B4D"/>
</g>
<g filter="url(#filter0_d_420_116)">
<path d="M88.8337 109.753L100.868 82.9384L112.171 111.4L100.155 127.442L88.8337 109.753Z" fill="#86E306"/>
<path d="M150.957 95.4049L111.937 111.4L100.868 83.1817L104.789 61.6272L116.43 48L150.957 95.4049Z" fill="#7CD600"/>
<path d="M100.868 83.1817L104.789 61.6272L95.2121 48.468L55 88.5633L88.8337 109.753L100.868 83.1817Z" fill="#98F01F"/>
<path d="M95.2121 48.468L116.43 48L104.789 61.6272L95.2121 48.468Z" fill="#86E306"/>
<path d="M111.937 111.4L99.9208 126.965L103.551 158L118.343 152.684L150.957 95.4049L111.937 111.4Z" fill="#60A600"/>
<path d="M55 88.5632L88.8337 109.753L99.9208 126.964L103.551 158L83.8341 151.739L55 88.5632Z" fill="#74C405"/>
<path opacity="0.5" d="M150.957 95.4049L123.465 83.7994L116.43 48L150.957 95.4049Z" fill="#E7F2DA"/>
<path opacity="0.5" d="M123.465 83.7994L81.6955 79.1104L95.2121 48.468L116.43 48L123.465 83.7994Z" fill="#94D43B"/>
<path opacity="0.5" d="M81.6955 79.1104L55 88.5633L95.2121 48.468L116.43 48L95.2121 48.468L81.6955 79.1104Z" fill="#78CF00"/>
<path opacity="0.5" d="M118.343 152.684L150.957 95.4049L123.465 83.7993L111.308 147.602L118.343 152.684Z" fill="#6DBD00"/>
<path opacity="0.5" d="M111.308 147.602L123.465 83.7994L81.6955 79.1104L95.2121 146.263L111.308 147.602Z" fill="#9ABD6A"/>
<path opacity="0.5" d="M83.8341 151.739L95.2121 146.263L81.6955 79.1104L55 88.5633L83.8341 151.739Z" fill="#5C9E00"/>
<path opacity="0.5" d="M103.551 158L102.247 146.844L95.2121 146.263L83.8341 151.739L103.551 158Z" fill="#83BD33"/>
<path d="M78.1956 97.0097C80.7773 97.1436 82.9787 95.1592 83.1126 92.5776C83.2465 89.9959 81.2622 87.7944 78.6805 87.6605C76.0988 87.5266 73.8974 89.511 73.7635 92.0927C73.6296 94.6744 75.6139 96.8758 78.1956 97.0097Z" fill="#333334"/>
<path d="M127.279 99.5554C129.86 99.6893 132.062 97.705 132.196 95.1233C132.329 92.5416 130.345 90.3402 127.763 90.2063C125.182 90.0724 122.98 92.0567 122.846 94.6384C122.713 97.2201 124.697 99.4216 127.279 99.5554Z" fill="#333334"/>
<path d="M98.2979 92.4681V94.5332C98.2979 97.2591 100.141 99.4894 102.394 99.4894C104.646 99.4894 106.489 97.2591 106.489 94.5332V92.4681" stroke="#333334" stroke-width="2.34043" stroke-miterlimit="10"/>
</g>
<defs>
<filter id="filter0_d_420_116" x="6.99999" y="4" width="191.957" height="206" filterUnits="userSpaceOnUse" color-interpolation-filters="sRGB">
<feFlood flood-opacity="0" result="BackgroundImageFix"/>
<feColorMatrix in="SourceAlpha" type="matrix" values="0 0 0 0 0 0 0 0 0 0 0 0 0 0 0 0 0 0 127 0" result="hardAlpha"/>
<feOffset dy="4"/>
<feGaussianBlur stdDeviation="24"/>
<feComposite in2="hardAlpha" operator="out"/>
<feColorMatrix type="matrix" values="0 0 0 0 0.643137 0 0 0 0 0.909804 0 0 0 0 0.290196 0 0 0 1 0"/>
<feBlend mode="normal" in2="BackgroundImageFix" result="effect1_dropShadow_420_116"/>
<feBlend mode="normal" in="SourceGraphic" in2="effect1_dropShadow_420_116" result="shape"/>
</filter>
<clipPath id="clip0_420_116">
<rect width="45" height="45" fill="white" transform="translate(0 136)"/>
</clipPath>
<clipPath id="clip1_420_116">
<rect width="40" height="40" fill="white" transform="translate(22)"/>
</clipPath>
<clipPath id="clip2_420_116">
<rect width="40" height="40" fill="white" transform="translate(167 28)"/>
</clipPath>
<clipPath id="clip3_420_116">
<rect width="40" height="40" fill="white" transform="translate(167 145)"/>
</clipPath>
</defs>
</svg>
