<svg width="25" height="18" viewBox="0 0 25 18" fill="none" xmlns="http://www.w3.org/2000/svg">
<path d="M3.47855 17.5963C2.44415 17.5963 1.66504 17.3377 1.14121 16.8205C0.617383 16.3033 0.355469 15.5342 0.355469 14.513V3.53252C0.355469 2.50475 0.604122 1.73558 1.10143 1.22502C1.59873 0.707818 2.29165 0.449219 3.18017 0.449219H21.2324C22.2668 0.449219 23.0459 0.707818 23.5697 1.22502C24.0936 1.73558 24.3555 2.50475 24.3555 3.53252V14.513C24.3555 15.5342 24.1068 16.3033 23.6095 16.8205C23.1122 17.3377 22.4193 17.5963 21.5308 17.5963H3.47855ZM3.41888 16.0746H21.2821C21.7794 16.0746 22.1607 15.942 22.4259 15.6767C22.6978 15.4115 22.8337 15.0236 22.8337 14.513V3.53252C22.8337 3.02195 22.6978 2.63405 22.4259 2.36882C22.1607 2.10359 21.7794 1.97098 21.2821 1.97098H3.41888C2.9282 1.97098 2.54693 2.10359 2.27507 2.36882C2.00984 2.63405 1.87723 3.01863 1.87723 3.52257V14.5031C1.87723 15.0203 2.00984 15.4115 2.27507 15.6767C2.54693 15.942 2.9282 16.0746 3.41888 16.0746ZM12.3505 11.6386C12.0322 11.6386 11.7206 11.5789 11.4156 11.4596C11.1105 11.3336 10.8155 11.1413 10.5304 10.8827L1.17105 2.45834L2.20545 1.41399L11.3957 9.69911C11.7007 9.97098 12.019 10.1069 12.3505 10.1069C12.6887 10.1069 13.0069 9.97098 13.3053 9.69911L22.4955 1.41399L23.5299 2.45834L14.1706 10.8827C13.8855 11.1413 13.5904 11.3336 13.2854 11.4596C12.9804 11.5789 12.6688 11.6386 12.3505 11.6386ZM2.35464 16.3232L1.32024 15.2789L8.38199 8.21714L9.41639 9.25154L2.35464 16.3232ZM22.3662 16.3332L15.2846 9.25154L16.3289 8.21714L23.4006 15.2888L22.3662 16.3332Z" fill="#4A612C"/>
</svg>
